<svg xmlns="http://www.w3.org/2000/svg" xmlns:xlink="http://www.w3.org/1999/xlink" width="500" zoomAndPan="magnify" viewBox="0 0 375 374.999991" height="500" preserveAspectRatio="xMidYMid meet" version="1.0"><rect x="-37.5" width="450" fill="#ffffff" y="-37.499999" height="449.999989" fill-opacity="1"/><rect x="-37.5" width="450" fill="#ffffff" y="-37.499999" height="449.999989" fill-opacity="1"/><rect x="-37.5" width="450" fill="#ffffff" y="-37.499999" height="449.999989" fill-opacity="1"/><rect x="-37.5" width="450" fill="#ffffff" y="-37.499999" height="449.999989" fill-opacity="1"/><path fill="#4e4ce9" d="M 188.113281 197.351562 L 185.664062 197.351562 C 185.867188 192.386719 186.074219 187.335938 186.277344 182.289062 L 189.253906 182.289062 C 189.375 187.378906 189.539062 192.425781 189.742188 197.394531 Z M 186.847656 165.023438 L 188.804688 165.023438 C 188.886719 168.160156 188.929688 171.375 189.007812 174.550781 L 186.5625 174.550781 C 186.644531 171.375 186.726562 168.199219 186.847656 165.023438 M 187.132812 153.296875 L 188.5625 153.296875 C 188.601562 155.496094 188.640625 157.695312 188.683594 159.933594 L 186.96875 159.933594 C 187.050781 157.734375 187.09375 155.496094 187.132812 153.296875 M 187.335938 144.828125 L 188.4375 144.828125 C 188.480469 146.417969 188.480469 148.046875 188.519531 149.714844 L 187.214844 149.714844 C 187.253906 148.085938 187.296875 146.457031 187.335938 144.828125 M 187.460938 138.4375 L 188.355469 138.4375 C 188.355469 139.65625 188.398438 140.921875 188.398438 142.140625 L 187.378906 142.140625 C 187.417969 140.878906 187.460938 139.65625 187.460938 138.4375 M 187.542969 133.429688 L 188.316406 133.429688 L 188.355469 136.359375 L 187.5 136.359375 Z M 187.175781 129.640625 C 187.132812 129.640625 187.050781 129.640625 187.011719 129.640625 C 184.605469 129.886719 182.972656 131.3125 182.117188 133.589844 C 179.996094 139.210938 177.914062 144.828125 175.792969 150.449219 C 170.898438 163.4375 166.046875 176.425781 161.152344 189.371094 C 155.15625 205.253906 149.203125 221.171875 143.207031 237.050781 C 142.429688 239.128906 142.308594 241.164062 143.65625 243.039062 C 145.695312 245.886719 148.917969 246.457031 152.015625 244.421875 C 156.503906 241.488281 160.949219 238.476562 165.433594 235.503906 C 171.714844 231.3125 178.039062 227.117188 184.359375 222.964844 C 184.605469 218.8125 184.847656 214.453125 185.09375 209.976562 L 190.234375 209.976562 C 190.4375 214.414062 190.640625 218.730469 190.84375 222.84375 C 197.207031 227.035156 203.609375 231.269531 209.933594 235.503906 C 214.417969 238.476562 218.863281 241.492188 223.351562 244.421875 C 226.449219 246.457031 229.671875 245.886719 231.710938 243.039062 C 233.058594 241.164062 232.9375 239.167969 232.160156 237.050781 C 226.164062 221.171875 220.171875 205.292969 214.214844 189.371094 C 209.320312 176.382812 204.425781 163.4375 199.574219 150.449219 C 197.453125 144.828125 195.371094 139.210938 193.25 133.589844 C 192.394531 131.351562 190.761719 129.925781 188.355469 129.683594 L 188.355469 131.71875 L 187.582031 131.71875 L 187.621094 129.640625 C 187.460938 129.640625 187.335938 129.640625 187.175781 129.640625 " fill-opacity="1" fill-rule="nonzero"/></svg>